<svg xmlns="http://www.w3.org/2000/svg" xmlns:xlink="http://www.w3.org/1999/xlink" width="2000" zoomAndPan="magnify" viewBox="0 0 1500 1499.999933" height="2000" preserveAspectRatio="xMidYMid meet" version="1.0"><defs><g/><clipPath id="318e21482f"><rect x="0" width="229" y="0" height="457"/></clipPath><clipPath id="9b50af9ddb"><path d="M 528.550781 478.453125 L 1124.050781 478.453125 L 1124.050781 671 L 528.550781 671 Z M 528.550781 478.453125 " clip-rule="nonzero"/></clipPath></defs><g fill="#00c0e8" fill-opacity="1"><g transform="translate(225.35496, 751.489331)"><g><path d="M -52.203125 -206.140625 C -54.140625 -206.484375 -56.035156 -207.097656 -57.890625 -207.984375 C -59.742188 -208.867188 -61.023438 -210.632812 -61.734375 -213.28125 C -61.023438 -213.988281 -60.273438 -214.785156 -59.484375 -215.671875 C -58.691406 -216.554688 -57.851562 -217.265625 -56.96875 -217.796875 C -55.195312 -218.492188 -53.425781 -219.109375 -51.65625 -219.640625 C -49.894531 -220.171875 -48.128906 -220.613281 -46.359375 -220.96875 C -33.648438 -223.613281 -20.800781 -225.953125 -7.8125 -227.984375 C 5.164062 -230.023438 18.28125 -231.128906 31.53125 -231.296875 C 37.53125 -231.472656 43.488281 -232.09375 49.40625 -233.15625 C 55.332031 -234.21875 61.296875 -235.101562 67.296875 -235.8125 C 77.015625 -237.039062 86.6875 -238.226562 96.3125 -239.375 C 105.9375 -240.53125 115.519531 -241.726562 125.0625 -242.96875 C 126.820312 -243.144531 128.628906 -243.40625 130.484375 -243.75 C 132.335938 -244.101562 134.328125 -244.457031 136.453125 -244.8125 C 137.515625 -247.113281 138.53125 -249.457031 139.5 -251.84375 C 140.46875 -254.226562 141.570312 -256.566406 142.8125 -258.859375 C 144.050781 -261.503906 145.375 -263.003906 146.78125 -263.359375 C 148.195312 -263.710938 151.023438 -263.359375 155.265625 -262.296875 C 155.085938 -260.003906 154.910156 -257.664062 154.734375 -255.28125 C 154.554688 -252.894531 154.378906 -250.378906 154.203125 -247.734375 C 155.617188 -247.554688 157.03125 -247.378906 158.4375 -247.203125 C 159.851562 -247.023438 161.179688 -247.023438 162.421875 -247.203125 C 173.367188 -248.265625 184.226562 -249.320312 195 -250.375 C 205.78125 -251.4375 216.644531 -252.410156 227.59375 -253.296875 C 247.375 -255.054688 267.113281 -256.554688 286.8125 -257.796875 C 306.507812 -259.035156 326.25 -258.859375 346.03125 -257.265625 C 349.382812 -257.085938 352.738281 -256.601562 356.09375 -255.8125 C 359.445312 -255.019531 362.804688 -254.09375 366.171875 -253.03125 C 368.460938 -252.5 370.535156 -251.484375 372.390625 -249.984375 C 374.242188 -248.484375 375.523438 -246.234375 376.234375 -243.234375 C 373.765625 -240.578125 371.023438 -239.203125 368.015625 -239.109375 C 365.015625 -239.023438 362.367188 -239.78125 360.078125 -241.375 C 355.835938 -244.019531 351.460938 -245.648438 346.953125 -246.265625 C 342.453125 -246.890625 337.90625 -247.203125 333.3125 -247.203125 C 321.476562 -247.378906 309.726562 -247.066406 298.0625 -246.265625 C 286.40625 -245.472656 274.75 -244.460938 263.09375 -243.234375 C 249.851562 -241.992188 236.609375 -240.664062 223.359375 -239.25 C 210.109375 -237.84375 196.859375 -236.429688 183.609375 -235.015625 C 179.367188 -234.660156 175.128906 -234.21875 170.890625 -233.6875 C 166.648438 -233.15625 162.5 -232.625 158.4375 -232.09375 C 157.03125 -231.914062 155.617188 -231.648438 154.203125 -231.296875 C 152.785156 -230.953125 151.375 -230.601562 149.96875 -230.25 C 149.613281 -229.007812 149.257812 -227.8125 148.90625 -226.65625 C 148.550781 -225.507812 148.195312 -224.320312 147.84375 -223.09375 C 141.132812 -197.125 134.378906 -171.15625 127.578125 -145.1875 C 120.773438 -119.226562 113.929688 -93.265625 107.046875 -67.296875 C 104.390625 -57.398438 102.222656 -47.375 100.546875 -37.21875 C 98.867188 -27.0625 97.0625 -16.953125 95.125 -6.890625 C 91.9375 9.535156 88.578125 25.960938 85.046875 42.390625 C 81.515625 58.816406 77.363281 75.066406 72.59375 91.140625 C 71.1875 96.085938 69.550781 101.035156 67.6875 105.984375 C 65.832031 110.929688 63.847656 115.785156 61.734375 120.546875 C 59.785156 125.140625 57.222656 128.144531 54.046875 129.5625 C 50.867188 130.976562 46.894531 131.332031 42.125 130.625 C 35.59375 129.738281 32.59375 126.289062 33.125 120.28125 C 33.300781 117.457031 33.609375 114.632812 34.046875 111.8125 C 34.484375 108.988281 35.054688 106.25 35.765625 103.59375 C 40.003906 87.519531 44.332031 71.488281 48.75 55.5 C 53.164062 39.519531 57.582031 23.582031 62 7.6875 C 64.46875 -0.96875 67.070312 -9.625 69.8125 -18.28125 C 72.550781 -26.9375 75.066406 -35.679688 77.359375 -44.515625 C 78.953125 -50.691406 80.234375 -57.003906 81.203125 -63.453125 C 82.179688 -69.898438 83.109375 -76.304688 83.984375 -82.671875 C 85.398438 -92.734375 86.503906 -102.796875 87.296875 -112.859375 C 88.097656 -122.929688 88.144531 -133.003906 87.4375 -143.078125 C 87.082031 -148.898438 86.503906 -154.679688 85.703125 -160.421875 C 84.910156 -166.171875 83.898438 -171.957031 82.671875 -177.78125 C 81.960938 -181.3125 80.898438 -184.753906 79.484375 -188.109375 C 78.066406 -191.472656 76.476562 -194.742188 74.71875 -197.921875 C 73.65625 -200.210938 72.238281 -202.375 70.46875 -204.40625 C 68.707031 -206.4375 66.941406 -208.335938 65.171875 -210.109375 C 62.523438 -212.578125 59.65625 -214.34375 56.5625 -215.40625 C 53.476562 -216.46875 50.078125 -216.644531 46.359375 -215.9375 C 39.828125 -214.695312 33.25 -213.59375 26.625 -212.625 C 20 -211.65625 13.421875 -210.726562 6.890625 -209.84375 C -0.347656 -208.957031 -7.585938 -208.160156 -14.828125 -207.453125 C -22.078125 -206.753906 -29.320312 -206.140625 -36.5625 -205.609375 C -39.03125 -205.253906 -41.585938 -205.207031 -44.234375 -205.46875 C -46.890625 -205.738281 -49.546875 -205.960938 -52.203125 -206.140625 Z M 80.546875 -219.640625 C 90.960938 -212.222656 98.070312 -203.347656 101.875 -193.015625 C 105.675781 -182.679688 108.546875 -171.507812 110.484375 -159.5 C 111.546875 -161.800781 112.828125 -165.203125 114.328125 -169.703125 C 115.828125 -174.203125 117.457031 -179.320312 119.21875 -185.0625 C 120.988281 -190.8125 122.664062 -196.507812 124.25 -202.15625 C 125.84375 -207.8125 127.210938 -212.890625 128.359375 -217.390625 C 129.515625 -221.898438 130.179688 -225.210938 130.359375 -227.328125 C 126.117188 -228.210938 121.921875 -228.164062 117.765625 -227.1875 C 113.617188 -226.21875 109.515625 -225.46875 105.453125 -224.9375 C 101.566406 -224.414062 97.503906 -223.976562 93.265625 -223.625 C 89.023438 -223.269531 84.785156 -221.941406 80.546875 -219.640625 Z M 80.546875 -219.640625 "/></g></g></g><g fill="#00c0e8" fill-opacity="1"><g transform="translate(363.133893, 751.489331)"><g><path d="M 77.625 -74.984375 C 79.394531 -67.566406 79.21875 -60.410156 77.09375 -53.515625 C 76.925781 -52.984375 76.488281 -52.320312 75.78125 -51.53125 C 75.070312 -50.738281 74.539062 -50.429688 74.1875 -50.609375 C 72.0625 -50.960938 70.472656 -51.929688 69.421875 -53.515625 C 68.890625 -54.398438 68.488281 -55.457031 68.21875 -56.6875 C 67.957031 -57.925781 67.648438 -59.164062 67.296875 -60.40625 C 66.765625 -61.820312 66.234375 -63.320312 65.703125 -64.90625 C 65.171875 -66.5 64.554688 -68.269531 63.859375 -70.21875 C 62.617188 -68.976562 61.421875 -67.914062 60.265625 -67.03125 C 59.117188 -66.144531 58.109375 -65.175781 57.234375 -64.125 C 53.523438 -59.351562 49.8125 -54.582031 46.09375 -49.8125 C 42.382812 -45.039062 38.675781 -40.179688 34.96875 -35.234375 C 32.144531 -31.523438 29.363281 -27.679688 26.625 -23.703125 C 23.882812 -19.734375 21.015625 -15.804688 18.015625 -11.921875 C 16.597656 -9.984375 15.050781 -8.171875 13.375 -6.484375 C 11.695312 -4.804688 9.976562 -3.085938 8.21875 -1.328125 C 5.382812 1.503906 1.671875 2.832031 -2.921875 2.65625 C -8.921875 2.65625 -11.300781 -0.171875 -10.0625 -5.828125 C -9.363281 -9.179688 -8.21875 -12.625 -6.625 -16.15625 C -2.5625 -25.875 1.5 -35.546875 5.5625 -45.171875 C 9.625 -54.796875 13.773438 -64.378906 18.015625 -73.921875 C 18.546875 -75.335938 19.117188 -76.660156 19.734375 -77.890625 C 20.359375 -79.128906 21.019531 -80.28125 21.71875 -81.34375 C 23.84375 -85.050781 27.378906 -85.929688 32.328125 -83.984375 C 31.972656 -77.628906 30.554688 -71.492188 28.078125 -65.578125 C 25.609375 -59.660156 24.195312 -53.082031 23.84375 -45.84375 C 25.4375 -47.601562 26.757812 -49.101562 27.8125 -50.34375 C 28.875 -51.582031 29.847656 -52.640625 30.734375 -53.515625 C 34.085938 -57.578125 37.441406 -61.640625 40.796875 -65.703125 C 44.160156 -69.765625 47.519531 -73.738281 50.875 -77.625 C 54.40625 -81.863281 58.910156 -84.160156 64.390625 -84.515625 C 71.628906 -85.222656 76.039062 -82.046875 77.625 -74.984375 Z M 77.625 -74.984375 "/></g></g></g><g fill="#00c0e8" fill-opacity="1"><g transform="translate(455.869732, 751.489331)"><g><path d="M 89.8125 -69.15625 C 89.8125 -68.09375 89.898438 -67.117188 90.078125 -66.234375 C 90.253906 -65.347656 90.253906 -64.644531 90.078125 -64.125 C 89.203125 -62.175781 88.273438 -60.1875 87.296875 -58.15625 C 86.328125 -56.125 85.222656 -54.140625 83.984375 -52.203125 C 78.335938 -43.015625 71.628906 -34.796875 63.859375 -27.546875 C 56.085938 -20.304688 47.609375 -13.863281 38.421875 -8.21875 C 30.472656 -3.09375 22.082031 -0.796875 13.25 -1.328125 C 0 -2.035156 -5.828125 -8.832031 -4.234375 -21.71875 C -3.878906 -23.488281 -3.523438 -25.082031 -3.171875 -26.5 C -1.410156 -33.914062 0.878906 -41.066406 3.703125 -47.953125 C 6.535156 -54.847656 9.804688 -61.472656 13.515625 -67.828125 C 15.453125 -71.179688 17.390625 -73.078125 19.328125 -73.515625 C 21.273438 -73.960938 24.457031 -73.390625 28.875 -71.796875 C 29.226562 -69.859375 29.050781 -67.960938 28.34375 -66.109375 C 27.644531 -64.253906 26.941406 -62.351562 26.234375 -60.40625 C 24.460938 -54.9375 22.691406 -49.414062 20.921875 -43.84375 C 19.160156 -38.28125 17.484375 -32.675781 15.890625 -27.03125 C 14.835938 -23.664062 14.398438 -20.484375 14.578125 -17.484375 C 14.578125 -16.242188 14.882812 -15.003906 15.5 -13.765625 C 16.113281 -12.535156 16.597656 -11.300781 16.953125 -10.0625 C 20.484375 -10.238281 23.617188 -10.988281 26.359375 -12.3125 C 29.097656 -13.644531 31.789062 -15.101562 34.4375 -16.6875 C 43.625 -22.34375 52.101562 -28.789062 59.875 -36.03125 C 67.644531 -43.269531 74.710938 -51.304688 81.078125 -60.140625 C 82.316406 -61.554688 83.460938 -63.191406 84.515625 -65.046875 C 85.578125 -66.898438 87.34375 -68.269531 89.8125 -69.15625 Z M 34.171875 -96.703125 C 31.878906 -94.941406 29.226562 -94.28125 26.21875 -94.71875 C 23.21875 -95.164062 20.925781 -96.535156 19.34375 -98.828125 C 18.101562 -100.765625 17.835938 -103.015625 18.546875 -105.578125 C 19.253906 -108.140625 20.753906 -110.039062 23.046875 -111.28125 C 26.054688 -113.050781 29.238281 -114.019531 32.59375 -114.1875 C 35.945312 -114.363281 39.390625 -114.015625 42.921875 -113.140625 C 41.859375 -110.660156 40.882812 -108.40625 40 -106.375 C 39.125 -104.34375 38.15625 -102.359375 37.09375 -100.421875 C 36.5625 -99.179688 35.585938 -97.941406 34.171875 -96.703125 Z M 34.171875 -96.703125 "/></g></g></g><g fill="#00c0e8" fill-opacity="1"><g transform="translate(567.513392, 958.832777)"><g><path d="M 98.265625 -68.59375 C 97.890625 -67.25 97.484375 -65.878906 97.046875 -64.484375 C 96.617188 -63.085938 96.453125 -61.523438 96.546875 -59.796875 C 97.691406 -59.890625 98.742188 -60.007812 99.703125 -60.15625 C 100.671875 -60.300781 101.632812 -60.421875 102.59375 -60.515625 C 104.707031 -60.710938 106.796875 -60.90625 108.859375 -61.09375 C 110.921875 -61.289062 112.960938 -61.4375 114.984375 -61.53125 C 115.847656 -61.53125 116.710938 -61.410156 117.578125 -61.171875 C 118.441406 -60.929688 119.257812 -60.664062 120.03125 -60.375 C 120.800781 -60.082031 121.425781 -59.648438 121.90625 -59.078125 C 122.382812 -58.503906 122.523438 -57.640625 122.328125 -56.484375 C 120.503906 -55.140625 118.488281 -54.898438 116.28125 -55.765625 C 114.84375 -56.335938 113.425781 -56.523438 112.03125 -56.328125 C 110.632812 -56.140625 109.265625 -55.90625 107.921875 -55.625 C 105.710938 -55.144531 103.457031 -54.640625 101.15625 -54.109375 C 98.851562 -53.578125 96.5 -53.023438 94.09375 -52.453125 C 91.59375 -44.472656 89.285156 -36.445312 87.171875 -28.375 C 85.054688 -20.3125 82.945312 -12.296875 80.84375 -4.328125 C 78.820312 3.648438 76.828125 11.625 74.859375 19.59375 C 72.890625 27.570312 70.894531 35.546875 68.875 43.515625 C 67.238281 43.609375 66.15625 43.535156 65.625 43.296875 C 65.101562 43.054688 64.84375 42.503906 64.84375 41.640625 C 64.9375 39.617188 64.984375 37.625 64.984375 35.65625 C 64.984375 33.6875 65.175781 31.742188 65.5625 29.828125 C 67.195312 21.859375 68.898438 13.910156 70.671875 5.984375 C 72.453125 -1.941406 74.207031 -9.84375 75.9375 -17.71875 C 76.988281 -22.238281 78.066406 -26.726562 79.171875 -31.1875 C 80.285156 -35.65625 81.367188 -40.148438 82.421875 -44.671875 C 82.609375 -45.242188 82.75 -45.863281 82.84375 -46.53125 C 82.945312 -47.207031 83.09375 -47.976562 83.28125 -48.84375 C 82.707031 -48.84375 82.203125 -48.890625 81.765625 -48.984375 C 81.335938 -49.085938 80.976562 -49.085938 80.6875 -48.984375 C 73.195312 -46.878906 65.703125 -44.742188 58.203125 -42.578125 C 50.710938 -40.421875 43.222656 -38.285156 35.734375 -36.171875 C 35.441406 -36.078125 35.148438 -35.929688 34.859375 -35.734375 C 34.578125 -35.546875 34.289062 -35.398438 34 -35.296875 C 33.332031 -33.566406 32.515625 -31 31.546875 -27.59375 C 30.585938 -24.1875 29.554688 -20.320312 28.453125 -16 C 27.347656 -11.675781 26.242188 -7.207031 25.140625 -2.59375 C 24.035156 2.019531 23.023438 6.390625 22.109375 10.515625 C 21.203125 14.648438 20.484375 18.207031 19.953125 21.1875 C 19.429688 24.164062 19.171875 26.226562 19.171875 27.375 C 15.421875 29.007812 13.5 28.144531 13.40625 24.78125 C 13.40625 22.863281 13.453125 20.96875 13.546875 19.09375 C 13.640625 17.21875 13.878906 15.367188 14.265625 13.546875 C 15.515625 6.921875 16.785156 0.269531 18.078125 -6.40625 C 19.378906 -13.082031 20.65625 -19.785156 21.90625 -26.515625 C 22 -27.179688 22.09375 -27.921875 22.1875 -28.734375 C 22.28125 -29.554688 22.425781 -30.445312 22.625 -31.40625 C 20.695312 -31.21875 18.988281 -30.785156 17.5 -30.109375 C 16.019531 -29.441406 14.507812 -28.867188 12.96875 -28.390625 C 11.8125 -28.003906 10.65625 -27.691406 9.5 -27.453125 C 8.351562 -27.210938 7.203125 -27.046875 6.046875 -26.953125 C 5.472656 -26.953125 4.894531 -27.140625 4.3125 -27.515625 C 3.738281 -27.898438 3.117188 -28.238281 2.453125 -28.53125 C 3.597656 -30.9375 5.179688 -32.570312 7.203125 -33.4375 C 9.222656 -34.300781 11.191406 -35.164062 13.109375 -36.03125 C 14.929688 -36.988281 16.828125 -37.828125 18.796875 -38.546875 C 20.773438 -39.265625 22.816406 -40.054688 24.921875 -40.921875 C 25.597656 -43.804688 26.296875 -46.664062 27.015625 -49.5 C 27.734375 -52.332031 28.429688 -55.1875 29.109375 -58.0625 C 30.640625 -64.113281 32.175781 -70.164062 33.71875 -76.21875 C 35.257812 -82.269531 36.796875 -88.320312 38.328125 -94.375 C 38.804688 -96.007812 39.3125 -97.59375 39.84375 -99.125 C 40.375 -100.664062 40.925781 -102.207031 41.5 -103.75 C 41.882812 -104.707031 42.363281 -105.570312 42.9375 -106.34375 C 43.507812 -107.113281 44.328125 -107.691406 45.390625 -108.078125 C 46.054688 -108.265625 46.75 -108.3125 47.46875 -108.21875 C 48.195312 -108.125 49.472656 -107.691406 51.296875 -106.921875 C 51.203125 -104.328125 50.742188 -101.800781 49.921875 -99.34375 C 49.109375 -96.894531 48.414062 -94.375 47.84375 -91.78125 C 47.257812 -89.1875 46.65625 -86.617188 46.03125 -84.078125 C 45.40625 -81.535156 44.757812 -79.015625 44.09375 -76.515625 C 42.84375 -71.328125 41.59375 -66.1875 40.34375 -61.09375 C 39.675781 -58.59375 39.03125 -56.046875 38.40625 -53.453125 C 37.78125 -50.859375 37.082031 -48.171875 36.3125 -45.390625 C 37.082031 -45.390625 37.753906 -45.363281 38.328125 -45.3125 C 38.898438 -45.269531 39.425781 -45.296875 39.90625 -45.390625 C 47.113281 -47.210938 54.316406 -49.0625 61.515625 -50.9375 C 68.722656 -52.8125 75.976562 -54.660156 83.28125 -56.484375 C 83.570312 -56.578125 83.882812 -56.71875 84.21875 -56.90625 C 84.5625 -57.101562 84.972656 -57.300781 85.453125 -57.5 C 85.734375 -58.363281 86.039062 -59.296875 86.375 -60.296875 C 86.71875 -61.304688 87.035156 -62.34375 87.328125 -63.40625 C 89.921875 -73.195312 92.535156 -82.941406 95.171875 -92.640625 C 97.816406 -102.347656 100.53125 -112.054688 103.3125 -121.765625 C 104.269531 -125.117188 105.394531 -128.453125 106.6875 -131.765625 C 107.988281 -135.085938 109.3125 -138.332031 110.65625 -141.5 C 111.425781 -143.320312 112.316406 -144.328125 113.328125 -144.515625 C 114.335938 -144.710938 115.992188 -144.332031 118.296875 -143.375 C 118.203125 -141.738281 117.960938 -140.148438 117.578125 -138.609375 C 117.191406 -137.078125 116.804688 -135.492188 116.421875 -133.859375 C 113.347656 -123.003906 110.296875 -112.125 107.265625 -101.21875 C 104.242188 -90.320312 101.242188 -79.445312 98.265625 -68.59375 Z M 98.265625 -68.59375 "/></g></g></g><g fill="#00c0e8" fill-opacity="1"><g transform="translate(680.338842, 958.832777)"><g><path d="M 128.8125 -129.25 C 130.257812 -132.132812 131.726562 -133.835938 133.21875 -134.359375 C 134.707031 -134.890625 137.226562 -134.53125 140.78125 -133.28125 C 141.164062 -131.75 141.210938 -130.332031 140.921875 -129.03125 C 140.628906 -127.738281 140.296875 -126.46875 139.921875 -125.21875 C 137.898438 -119.257812 135.90625 -113.328125 133.9375 -107.421875 C 131.96875 -101.515625 130.019531 -95.582031 128.09375 -89.625 C 123.101562 -74.632812 118.085938 -59.644531 113.046875 -44.65625 C 108.003906 -29.675781 102.984375 -14.695312 97.984375 0.28125 C 96.441406 5.09375 95.117188 9.945312 94.015625 14.84375 C 92.910156 19.738281 92.023438 24.640625 91.359375 29.546875 C 89.816406 30.984375 88.039062 31.078125 86.03125 29.828125 C 85.644531 27.910156 85.5 25.914062 85.59375 23.84375 C 85.6875 21.78125 85.878906 19.738281 86.171875 17.71875 C 86.835938 11.769531 87.890625 5.9375 89.328125 0.21875 C 90.773438 -5.5 92.363281 -11.191406 94.09375 -16.859375 C 96.59375 -25.210938 99.140625 -33.519531 101.734375 -41.78125 C 104.328125 -50.039062 106.921875 -58.304688 109.515625 -66.578125 C 109.898438 -67.722656 110.234375 -68.875 110.515625 -70.03125 C 110.804688 -71.1875 110.90625 -72.382812 110.8125 -73.625 C 110.332031 -72.957031 109.800781 -72.238281 109.21875 -71.46875 C 108.644531 -70.695312 108.117188 -69.929688 107.640625 -69.171875 C 102.453125 -61.191406 97 -53.457031 91.28125 -45.96875 C 85.5625 -38.476562 79.535156 -31.222656 73.203125 -24.203125 C 69.265625 -19.691406 65.082031 -15.367188 60.65625 -11.234375 C 56.238281 -7.109375 51.628906 -3.171875 46.828125 0.578125 C 43.753906 2.878906 40.5625 4.988281 37.25 6.90625 C 33.9375 8.832031 30.503906 10.515625 26.953125 11.953125 C 22.628906 13.679688 18.304688 14.40625 13.984375 14.125 C 7.066406 13.644531 3.269531 10.140625 2.59375 3.609375 C 2.40625 1.203125 2.359375 -1.222656 2.453125 -3.671875 C 2.546875 -6.117188 2.738281 -8.5 3.03125 -10.8125 C 3.601562 -15.519531 4.535156 -20.15625 5.828125 -24.71875 C 7.128906 -29.28125 8.550781 -33.769531 10.09375 -38.1875 C 13.550781 -48.46875 17.222656 -58.671875 21.109375 -68.796875 C 25.003906 -78.929688 29.207031 -89 33.71875 -99 C 35.15625 -102.164062 36.785156 -105.238281 38.609375 -108.21875 C 39.765625 -110.039062 41.113281 -111.476562 42.65625 -112.53125 C 43.613281 -113.300781 44.664062 -113.707031 45.8125 -113.75 C 46.96875 -113.800781 48.023438 -113.203125 48.984375 -111.953125 C 48.117188 -110.992188 47.226562 -110.035156 46.3125 -109.078125 C 45.40625 -108.117188 44.617188 -107.109375 43.953125 -106.046875 C 43.273438 -104.992188 42.695312 -103.84375 42.21875 -102.59375 C 41.738281 -101.34375 41.257812 -100.144531 40.78125 -99 C 35.882812 -86.789062 31.222656 -74.5625 26.796875 -62.3125 C 22.378906 -50.070312 18.347656 -37.660156 14.703125 -25.078125 C 13.640625 -21.140625 12.722656 -17.175781 11.953125 -13.1875 C 11.191406 -9.195312 10.953125 -5.140625 11.234375 -1.015625 C 11.335938 0.335938 11.554688 1.707031 11.890625 3.09375 C 12.222656 4.488281 12.628906 5.859375 13.109375 7.203125 C 13.878906 9.503906 15.46875 10.222656 17.875 9.359375 C 19.40625 8.785156 20.914062 8.160156 22.40625 7.484375 C 23.894531 6.816406 25.359375 6.097656 26.796875 5.328125 C 33.617188 1.773438 39.863281 -2.6875 45.53125 -8.0625 C 49.1875 -11.425781 52.789062 -14.835938 56.34375 -18.296875 C 59.894531 -21.753906 63.304688 -25.3125 66.578125 -28.96875 C 76.179688 -39.71875 85.015625 -51.023438 93.078125 -62.890625 C 101.148438 -74.753906 108.359375 -87.171875 114.703125 -100.140625 C 116.429688 -103.597656 118.132812 -107.054688 119.8125 -110.515625 C 121.488281 -113.972656 123.144531 -117.429688 124.78125 -120.890625 C 125.457031 -122.335938 126.109375 -123.753906 126.734375 -125.140625 C 127.359375 -126.535156 128.050781 -127.90625 128.8125 -129.25 Z M 128.8125 -129.25 "/></g></g></g><g fill="#00c0e8" fill-opacity="1"><g transform="translate(804.547705, 958.832777)"><g><path d="M 74.640625 -14.265625 C 75.796875 -14.171875 76.945312 -14.050781 78.09375 -13.90625 C 79.25 -13.757812 80.597656 -13.640625 82.140625 -13.546875 C 81.367188 -12.003906 80.453125 -10.992188 79.390625 -10.515625 C 78.335938 -10.035156 77.332031 -9.601562 76.375 -9.21875 C 74.0625 -8.164062 72.523438 -6.4375 71.765625 -4.03125 C 70.035156 1.539062 67.390625 6.4375 63.828125 10.65625 C 60.273438 14.882812 56.191406 18.679688 51.578125 22.046875 C 46.390625 25.890625 40.960938 29.25 35.296875 32.125 C 29.628906 35.007812 23.769531 37.507812 17.71875 39.625 C 16.851562 40.007812 15.941406 40.320312 14.984375 40.5625 C 14.023438 40.800781 13.066406 41.015625 12.109375 41.203125 C 8.648438 41.785156 5.429688 41.351562 2.453125 39.90625 C 1.296875 39.332031 0.550781 38.539062 0.21875 37.53125 C -0.113281 36.53125 0.00390625 35.5 0.578125 34.4375 C 1.535156 32.707031 2.59375 31.316406 3.75 30.265625 C 5.09375 29.015625 6.457031 27.765625 7.84375 26.515625 C 9.238281 25.265625 10.707031 24.0625 12.25 22.90625 C 20.125 16.957031 28.164062 11.242188 36.375 5.765625 C 44.59375 0.285156 53.21875 -4.515625 62.25 -8.640625 C 64.550781 -9.796875 65.847656 -11.625 66.140625 -14.125 C 66.429688 -17.382812 66.285156 -20.578125 65.703125 -23.703125 C 65.128906 -26.828125 64.171875 -29.878906 62.828125 -32.859375 C 62.242188 -34.109375 61.640625 -35.378906 61.015625 -36.671875 C 60.398438 -37.960938 59.800781 -39.234375 59.21875 -40.484375 C 57.007812 -45.484375 57.539062 -50.046875 60.8125 -54.171875 C 62.15625 -55.898438 63.570312 -57.582031 65.0625 -59.21875 C 66.550781 -60.851562 68.015625 -62.488281 69.453125 -64.125 C 75.503906 -70.5625 81.21875 -77.238281 86.59375 -84.15625 C 91.976562 -91.070312 96.785156 -98.421875 101.015625 -106.203125 C 102.265625 -108.410156 103.367188 -110.664062 104.328125 -112.96875 C 105.285156 -115.269531 106.242188 -117.578125 107.203125 -119.890625 C 107.679688 -121.328125 107.875 -122.359375 107.78125 -122.984375 C 107.6875 -123.609375 107.300781 -124.976562 106.625 -127.09375 C 105.28125 -126.613281 104.03125 -125.960938 102.875 -125.140625 C 101.726562 -124.328125 100.675781 -123.441406 99.71875 -122.484375 C 96.539062 -119.304688 93.34375 -116.132812 90.125 -112.96875 C 86.90625 -109.800781 83.8125 -106.535156 80.84375 -103.171875 C 74.300781 -95.578125 68.097656 -87.722656 62.234375 -79.609375 C 56.378906 -71.492188 50.570312 -63.351562 44.8125 -55.1875 C 41.257812 -50.09375 37.65625 -45 34 -39.90625 C 30.351562 -34.820312 26.707031 -29.734375 23.0625 -24.640625 C 22.675781 -24.066406 22.265625 -23.535156 21.828125 -23.046875 C 21.398438 -22.566406 20.992188 -22.039062 20.609375 -21.46875 C 19.066406 -19.644531 16.90625 -18.878906 14.125 -19.171875 C 10.28125 -19.453125 8.984375 -21.320312 10.234375 -24.78125 C 11.671875 -28.914062 13.15625 -33.046875 14.6875 -37.171875 C 16.226562 -41.304688 17.769531 -45.4375 19.3125 -49.5625 C 22.675781 -58.5 25.914062 -67.484375 29.03125 -76.515625 C 32.15625 -85.546875 34.914062 -94.671875 37.3125 -103.890625 C 38.46875 -108.210938 39.523438 -112.582031 40.484375 -117 C 41.453125 -121.414062 42.175781 -125.882812 42.65625 -130.40625 C 42.75 -131.65625 42.816406 -132.953125 42.859375 -134.296875 C 42.910156 -135.640625 42.890625 -136.9375 42.796875 -138.1875 C 42.796875 -138.664062 42.648438 -139.164062 42.359375 -139.6875 C 42.078125 -140.21875 41.789062 -140.820312 41.5 -141.5 C 39.476562 -139.863281 37.648438 -138.132812 36.015625 -136.3125 C 34.390625 -134.488281 32.90625 -132.566406 31.5625 -130.546875 C 26.945312 -124.203125 22.789062 -117.617188 19.09375 -110.796875 C 15.394531 -103.984375 12.054688 -96.925781 9.078125 -89.625 C 8.597656 -88.375 8.140625 -87.148438 7.703125 -85.953125 C 7.273438 -84.753906 6.773438 -83.53125 6.203125 -82.28125 C 6.097656 -81.894531 5.878906 -81.53125 5.546875 -81.1875 C 5.210938 -80.851562 4.804688 -80.445312 4.328125 -79.96875 C 4.035156 -80.550781 3.742188 -81.03125 3.453125 -81.40625 C 3.171875 -81.789062 3.078125 -82.175781 3.171875 -82.5625 C 3.265625 -84.382812 3.359375 -86.234375 3.453125 -88.109375 C 3.554688 -89.984375 3.796875 -91.832031 4.171875 -93.65625 C 5.898438 -101.820312 8.492188 -109.601562 11.953125 -117 C 15.410156 -124.394531 19.785156 -131.359375 25.078125 -137.890625 C 26.222656 -139.335938 27.492188 -140.6875 28.890625 -141.9375 C 30.285156 -143.1875 31.65625 -144.429688 33 -145.671875 C 34.53125 -146.921875 36.1875 -147.785156 37.96875 -148.265625 C 39.75 -148.753906 41.597656 -148.898438 43.515625 -148.703125 C 46.492188 -148.515625 48.847656 -147.675781 50.578125 -146.1875 C 52.304688 -144.695312 53.316406 -142.460938 53.609375 -139.484375 C 53.890625 -137.078125 54.003906 -134.648438 53.953125 -132.203125 C 53.910156 -129.753906 53.695312 -127.378906 53.3125 -125.078125 C 52.351562 -120.273438 51.34375 -115.519531 50.28125 -110.8125 C 49.226562 -106.101562 47.984375 -101.441406 46.546875 -96.828125 C 44.617188 -90.679688 42.570312 -84.554688 40.40625 -78.453125 C 38.25 -72.359375 36.164062 -66.238281 34.15625 -60.09375 C 33.863281 -59.226562 33.546875 -58.382812 33.203125 -57.5625 C 32.867188 -56.75 32.5625 -55.910156 32.28125 -55.046875 C 33.144531 -54.953125 33.742188 -55.164062 34.078125 -55.6875 C 34.410156 -56.21875 34.722656 -56.722656 35.015625 -57.203125 C 40.003906 -64.023438 44.945312 -70.867188 49.84375 -77.734375 C 54.75 -84.609375 59.75 -91.453125 64.84375 -98.265625 C 68.207031 -102.785156 71.785156 -107.109375 75.578125 -111.234375 C 79.367188 -115.367188 83.378906 -119.257812 87.609375 -122.90625 C 89.148438 -124.25 90.757812 -125.546875 92.4375 -126.796875 C 94.113281 -128.046875 95.816406 -129.296875 97.546875 -130.546875 C 99.472656 -131.796875 101.492188 -132.585938 103.609375 -132.921875 C 105.722656 -133.265625 107.929688 -133.242188 110.234375 -132.859375 C 115.222656 -131.890625 117.671875 -128.765625 117.578125 -123.484375 C 117.484375 -121.472656 117.125 -119.53125 116.5 -117.65625 C 115.875 -115.78125 115.128906 -113.976562 114.265625 -112.25 C 109.753906 -103.125 104.328125 -94.625 97.984375 -86.75 C 94.910156 -82.8125 91.765625 -78.988281 88.546875 -75.28125 C 85.328125 -71.582031 82.082031 -67.863281 78.8125 -64.125 C 77.46875 -62.394531 76.050781 -60.710938 74.5625 -59.078125 C 73.070312 -57.441406 71.65625 -55.757812 70.3125 -54.03125 C 68.195312 -51.632812 66.945312 -49.140625 66.5625 -46.546875 C 66.1875 -43.953125 66.863281 -41.210938 68.59375 -38.328125 C 68.976562 -37.648438 69.335938 -36.953125 69.671875 -36.234375 C 70.003906 -35.515625 70.316406 -34.820312 70.609375 -34.15625 C 71.753906 -31.65625 72.664062 -29.082031 73.34375 -26.4375 C 74.019531 -23.800781 74.359375 -21.085938 74.359375 -18.296875 C 74.253906 -17.628906 74.25 -16.984375 74.34375 -16.359375 C 74.445312 -15.734375 74.546875 -15.035156 74.640625 -14.265625 Z M 19.015625 29.109375 C 18.148438 29.878906 17.285156 30.71875 16.421875 31.625 C 15.554688 32.539062 14.550781 33.523438 13.40625 34.578125 C 14.269531 34.773438 14.867188 34.894531 15.203125 34.9375 C 15.535156 34.988281 15.800781 35.015625 16 35.015625 C 16.863281 34.828125 17.675781 34.585938 18.4375 34.296875 C 30.257812 30.160156 40.828125 24.109375 50.140625 16.140625 C 54.460938 12.484375 57.921875 8.253906 60.515625 3.453125 C 60.804688 2.972656 61.046875 2.394531 61.234375 1.71875 C 61.429688 1.050781 61.722656 0.238281 62.109375 -0.71875 C 61.335938 -0.425781 60.710938 -0.207031 60.234375 -0.0625 C 59.753906 0.0703125 59.367188 0.238281 59.078125 0.4375 C 52.066406 4.757812 45.222656 9.296875 38.546875 14.046875 C 31.867188 18.804688 25.359375 23.828125 19.015625 29.109375 Z M 19.015625 29.109375 "/></g></g></g><g fill="#00c0e8" fill-opacity="1"><g transform="translate(895.767274, 958.832777)"><g/></g></g><g transform="matrix(1, 0, 0, 1, 473, 515)"><g clip-path="url(#318e21482f)"><g fill="#f2541d" fill-opacity="1"><g transform="translate(63.051061, 288.86204)"><g><path d="M 160.828125 -41.859375 C 161.359375 -41.679688 161.84375 -41.238281 162.28125 -40.53125 C 162.726562 -39.832031 163.210938 -39.128906 163.734375 -38.421875 C 163.035156 -38.066406 162.421875 -37.800781 161.890625 -37.625 C 161.359375 -37.445312 161.003906 -37.445312 160.828125 -37.625 C 157.296875 -39.738281 153.675781 -40.882812 149.96875 -41.0625 C 146.257812 -41.238281 142.460938 -40.972656 138.578125 -40.265625 C 130.617188 -38.679688 122.882812 -36.429688 115.375 -33.515625 C 107.875 -30.597656 100.503906 -27.195312 93.265625 -23.3125 C 90.441406 -21.726562 87.878906 -19.875 85.578125 -17.75 C 83.285156 -15.632812 81.429688 -13.070312 80.015625 -10.0625 C 77.898438 -5.820312 75.425781 -1.894531 72.59375 1.71875 C 69.769531 5.34375 66.679688 8.832031 63.328125 12.1875 C 58.554688 16.78125 52.988281 18.457031 46.625 17.21875 C 44.332031 16.6875 42.613281 15.625 41.46875 14.03125 C 40.320312 12.445312 40.097656 10.507812 40.796875 8.21875 C 41.859375 4.332031 43.628906 0.796875 46.109375 -2.390625 C 52.640625 -10.691406 60.234375 -17.222656 68.890625 -21.984375 C 72.421875 -23.929688 74.890625 -26.273438 76.296875 -29.015625 C 77.710938 -31.753906 78.597656 -34.976562 78.953125 -38.6875 C 79.304688 -42.570312 79.394531 -46.410156 79.21875 -50.203125 C 79.039062 -54.003906 78.507812 -57.757812 77.625 -61.46875 C 77.269531 -62.882812 76.738281 -64.382812 76.03125 -65.96875 C 75.332031 -67.5625 74.628906 -69.238281 73.921875 -71 C 72.503906 -70.300781 71.222656 -69.6875 70.078125 -69.15625 C 68.929688 -68.625 68.003906 -67.914062 67.296875 -67.03125 C 64.117188 -63.144531 60.984375 -59.210938 57.890625 -55.234375 C 54.796875 -51.265625 51.835938 -47.160156 49.015625 -42.921875 C 42.128906 -32.328125 35.769531 -21.375 29.9375 -10.0625 C 24.113281 1.238281 18.640625 12.71875 13.515625 24.375 C 4.503906 45.039062 -4.414062 65.796875 -13.25 86.640625 C -22.082031 107.484375 -30.914062 128.328125 -39.75 149.171875 C -40.445312 150.753906 -41.148438 152.429688 -41.859375 154.203125 C -42.566406 155.972656 -43.273438 157.648438 -43.984375 159.234375 C -45.222656 162.054688 -46.328125 164.085938 -47.296875 165.328125 C -48.265625 166.566406 -49.539062 167.1875 -51.125 167.1875 C -52.71875 167.1875 -55.28125 166.832031 -58.8125 166.125 C -60.050781 164.707031 -60.535156 163.203125 -60.265625 161.609375 C -60.003906 160.023438 -59.695312 158.441406 -59.34375 156.859375 C -57.40625 150.492188 -55.507812 144.128906 -53.65625 137.765625 C -51.800781 131.410156 -49.8125 125.054688 -47.6875 118.703125 C -37.625 87.785156 -27.515625 56.914062 -17.359375 26.09375 C -7.203125 -4.726562 2.910156 -35.59375 12.984375 -66.5 C 14.046875 -69.332031 15.148438 -72.160156 16.296875 -74.984375 C 17.441406 -77.804688 18.632812 -80.628906 19.875 -83.453125 C 20.050781 -83.984375 20.578125 -84.46875 21.453125 -84.90625 C 22.335938 -85.351562 23.046875 -85.488281 23.578125 -85.3125 C 24.109375 -85.3125 24.679688 -84.914062 25.296875 -84.125 C 25.921875 -83.332031 26.234375 -82.671875 26.234375 -82.140625 C 26.234375 -79.835938 26.144531 -77.582031 25.96875 -75.375 C 25.789062 -73.164062 25.4375 -71.003906 24.90625 -68.890625 C 22.613281 -59.347656 20.226562 -49.765625 17.75 -40.140625 C 15.28125 -30.515625 12.894531 -20.929688 10.59375 -11.390625 C 10.0625 -9.453125 9.53125 -7.554688 9 -5.703125 C 8.476562 -3.847656 7.953125 -1.945312 7.421875 0 C 7.773438 0.175781 8.039062 0.265625 8.21875 0.265625 C 8.394531 0.265625 8.660156 0.351562 9.015625 0.53125 C 10.242188 -1.9375 11.476562 -4.453125 12.71875 -7.015625 C 13.957031 -9.578125 15.28125 -12.097656 16.6875 -14.578125 C 20.21875 -21.109375 23.75 -27.640625 27.28125 -34.171875 C 30.820312 -40.710938 34.625 -47.160156 38.6875 -53.515625 C 40.976562 -57.046875 43.582031 -60.359375 46.5 -63.453125 C 49.414062 -66.546875 52.285156 -69.59375 55.109375 -72.59375 C 60.054688 -77.71875 66.328125 -80.101562 73.921875 -79.75 C 83.992188 -79.394531 89.820312 -74.363281 91.40625 -64.65625 C 91.757812 -62 91.9375 -59.257812 91.9375 -56.4375 C 91.9375 -53.613281 91.9375 -50.785156 91.9375 -47.953125 C 91.9375 -45.835938 91.800781 -43.804688 91.53125 -41.859375 C 91.269531 -39.921875 91.050781 -37.890625 90.875 -35.765625 C 92.820312 -35.054688 94.546875 -34.96875 96.046875 -35.5 C 97.546875 -36.03125 99.003906 -36.5625 100.421875 -37.09375 C 108.015625 -39.382812 115.609375 -41.367188 123.203125 -43.046875 C 130.796875 -44.734375 138.65625 -45.3125 146.78125 -44.78125 C 149.082031 -44.78125 151.378906 -44.425781 153.671875 -43.71875 C 155.972656 -43.007812 158.359375 -42.390625 160.828125 -41.859375 Z M 58.296875 6.625 C 62.179688 5.382812 64.300781 2.910156 64.65625 -0.796875 C 61.644531 0.441406 59.523438 2.914062 58.296875 6.625 Z M 58.296875 6.625 "/></g></g></g></g></g><path fill="#00c0e8" d="M 1026.53125 560.625 L 967.695312 547.929688 L 940.929688 559.75 L 961.039062 546.488281 C 971.835938 539.722656 982.078125 532.75 987.125 527.789062 C 993.222656 521.8125 1006.082031 499.394531 1006.082031 499.394531 C 1008.316406 496.042969 1007.144531 491.5 1003.574219 489.648438 C 1002.597656 489.148438 1001.527344 488.886719 1000.433594 488.890625 C 1000.433594 488.890625 978.519531 487.179688 971.539062 489.042969 C 955.996094 493.183594 898.628906 531.453125 898.628906 531.453125 L 798.25 532.515625 C 797.746094 532.523438 797.316406 532.878906 797.214844 533.371094 L 794.773438 545.492188 C 794.652344 546.082031 795.046875 546.65625 795.644531 546.753906 L 852.285156 556.238281 L 875.710938 546.34375 L 857.84375 557.167969 L 811.480469 585.957031 L 802.515625 591.332031 L 809.527344 584.953125 L 778.574219 568.980469 C 778.304688 568.835938 777.992188 568.820312 777.707031 568.925781 L 761.519531 575.078125 C 760.742188 575.375 760.585938 576.410156 761.242188 576.917969 L 789.835938 599.21875 L 761.261719 624.078125 C 760.777344 624.675781 761.070312 625.582031 761.8125 625.777344 L 771.316406 628.34375 C 771.605469 628.425781 771.914062 628.378906 772.167969 628.21875 L 812.21875 610.382812 C 812.21875 610.382812 842.894531 602.570312 856.523438 599.128906 C 869.234375 595.90625 918.542969 570.753906 918.542969 570.753906 L 1023.816406 574.859375 C 1024.339844 574.878906 1024.800781 574.519531 1024.902344 574.003906 L 1027.351562 561.878906 C 1027.464844 561.3125 1027.097656 560.75 1026.53125 560.625 " fill-opacity="1" fill-rule="nonzero"/><g clip-path="url(#9b50af9ddb)"><path fill="#00c0e8" d="M 528.5625 665.457031 C 528.5625 665.457031 532.273438 664.179688 539.234375 661.78125 C 540.984375 661.210938 542.894531 660.457031 545.015625 659.679688 C 547.128906 658.894531 549.4375 658.039062 551.933594 657.105469 C 554.421875 656.171875 557.0625 655.054688 559.898438 653.925781 C 561.316406 653.367188 562.777344 652.78125 564.28125 652.183594 C 565.78125 651.574219 567.300781 650.890625 568.878906 650.222656 C 581.484375 644.878906 596.574219 637.894531 613.257812 628.761719 C 615.332031 627.601562 617.441406 626.429688 619.582031 625.234375 C 620.652344 624.640625 621.730469 624.035156 622.816406 623.433594 C 623.886719 622.800781 624.964844 622.164062 626.050781 621.523438 C 628.226562 620.238281 630.425781 618.9375 632.660156 617.617188 C 633.785156 616.972656 634.878906 616.257812 635.996094 615.566406 C 637.109375 614.867188 638.226562 614.164062 639.355469 613.457031 C 640.484375 612.746094 641.617188 612.035156 642.757812 611.320312 C 643.902344 610.605469 645.046875 609.882812 646.179688 609.117188 C 648.453125 607.613281 650.753906 606.085938 653.082031 604.546875 C 655.429688 603.03125 657.71875 601.375 660.058594 599.742188 C 661.230469 598.921875 662.402344 598.097656 663.582031 597.269531 C 664.765625 596.4375 665.960938 595.617188 667.121094 594.738281 C 669.460938 593 671.828125 591.246094 674.21875 589.472656 C 674.816406 589.03125 675.414062 588.589844 676.015625 588.144531 C 676.605469 587.6875 677.195312 587.226562 677.789062 586.765625 C 678.972656 585.839844 680.160156 584.914062 681.355469 583.976562 C 686.175781 580.304688 690.882812 576.304688 695.726562 572.320312 C 698.09375 570.261719 700.480469 568.183594 702.890625 566.089844 C 704.082031 565.042969 705.320312 564 706.492188 562.9375 C 707.71875 561.84375 708.875 560.773438 710.042969 559.699219 C 714.707031 555.34375 719.175781 550.78125 723.03125 545.828125 C 726.851562 540.878906 730.03125 535.46875 731.992188 529.777344 C 733.875 524.21875 734.351562 517.992188 733.308594 512.183594 C 732.253906 506.371094 729.546875 501.070312 725.414062 497.675781 C 721.34375 494.25 715.515625 492.558594 709.414062 492.605469 C 709.035156 492.601562 708.652344 492.617188 708.269531 492.632812 C 707.886719 492.644531 707.503906 492.660156 707.121094 492.695312 C 706.738281 492.730469 706.355469 492.746094 705.972656 492.800781 L 705.394531 492.863281 L 705.109375 492.894531 C 705.480469 492.839844 705.015625 492.914062 705.011719 492.914062 L 702.273438 493.363281 C 702.019531 493.398438 701.894531 493.449219 701.703125 493.492188 L 701.179688 493.625 L 700.121094 493.882812 L 699.589844 494.007812 L 699.019531 494.1875 L 697.871094 494.539062 C 697.492188 494.664062 697.101562 494.757812 696.726562 494.902344 L 695.59375 495.332031 L 694.457031 495.757812 C 694.078125 495.902344 693.707031 496.082031 693.332031 496.242188 C 692.589844 496.585938 691.828125 496.867188 691.097656 497.265625 C 688.128906 498.691406 685.253906 500.464844 682.472656 502.449219 C 679.691406 504.429688 677 506.640625 674.402344 509.015625 C 671.808594 511.398438 669.316406 513.960938 666.90625 516.632812 L 666.003906 517.640625 C 665.957031 517.695312 665.789062 517.878906 665.839844 517.816406 L 665.609375 518.09375 L 664.214844 519.722656 C 663.90625 520.082031 663.582031 520.453125 663.324219 520.785156 L 661.675781 522.824219 L 660.027344 524.972656 C 657.859375 527.859375 655.78125 530.828125 653.84375 533.894531 C 651.90625 536.960938 650.125 540.117188 648.46875 543.34375 C 645.148438 549.796875 642.5 556.574219 640.585938 563.5 C 639.636719 566.96875 638.917969 570.480469 638.40625 574.003906 C 637.898438 577.53125 637.601562 581.066406 637.578125 584.589844 C 637.558594 591.628906 638.601562 598.589844 640.796875 605.15625 L 641.6875 607.59375 C 641.992188 608.402344 642.359375 609.183594 642.6875 609.980469 L 642.941406 610.582031 C 643.003906 610.726562 642.828125 610.347656 642.980469 610.667969 L 643.144531 610.996094 L 644.453125 613.628906 L 644.78125 614.289062 C 644.886719 614.484375 644.992188 614.644531 645.09375 614.820312 L 646.320312 616.914062 L 646.625 617.4375 L 646.992188 617.980469 L 647.71875 619.0625 C 648.644531 620.539062 649.746094 621.898438 650.796875 623.300781 C 653.027344 625.996094 655.355469 628.652344 658 631.023438 L 658.96875 631.9375 C 659.292969 632.242188 659.644531 632.515625 659.980469 632.804688 L 662.019531 634.523438 C 662.71875 635.082031 663.441406 635.609375 664.148438 636.15625 L 665.214844 636.96875 C 665.574219 637.230469 665.953125 637.476562 666.320312 637.730469 L 668.53125 639.25 L 670.824219 640.671875 L 671.96875 641.378906 L 673.148438 642.039062 L 675.507812 643.355469 L 677.925781 644.566406 L 679.136719 645.171875 L 682.84375 646.824219 L 685.363281 647.816406 L 686.621094 648.316406 L 687.902344 648.757812 L 690.324219 649.605469 L 693.128906 650.449219 L 694.519531 650.863281 L 695.796875 651.195312 L 698.351562 651.867188 L 701.03125 652.472656 C 701.917969 652.691406 702.816406 652.867188 703.71875 653.035156 C 704.617188 653.207031 705.515625 653.390625 706.417969 653.550781 C 713.660156 654.789062 721.03125 655.496094 728.457031 655.695312 C 732.164062 655.828125 735.894531 655.789062 739.617188 655.734375 C 743.347656 655.628906 747.074219 655.480469 750.808594 655.230469 C 751.738281 655.179688 752.671875 655.113281 753.605469 655.042969 L 756.292969 654.855469 C 758.195312 654.679688 760.09375 654.503906 761.988281 654.324219 C 763.882812 654.144531 765.777344 653.96875 767.667969 653.796875 C 769.527344 653.589844 771.339844 653.355469 773.175781 653.132812 C 775.007812 652.914062 776.835938 652.691406 778.660156 652.46875 C 780.488281 652.246094 782.328125 651.9375 784.15625 651.675781 C 785.988281 651.40625 787.816406 651.132812 789.640625 650.863281 L 791.011719 650.660156 L 792.371094 650.421875 L 795.09375 649.945312 C 798.722656 649.300781 802.34375 648.730469 805.929688 647.996094 C 807.726562 647.648438 809.519531 647.296875 811.308594 646.949219 L 813.992188 646.425781 L 816.65625 645.851562 C 845.109375 639.851562 872.273438 631.925781 897.945312 623.976562 C 910.789062 620.015625 923.25 615.972656 935.332031 612.097656 C 947.417969 608.238281 959.09375 604.449219 970.355469 600.953125 C 992.878906 593.933594 1013.691406 587.898438 1032.339844 583.28125 C 1050.980469 578.65625 1067.417969 575.378906 1081.027344 573.210938 C 1082.726562 572.945312 1084.386719 572.683594 1085.996094 572.433594 C 1086.796875 572.308594 1087.59375 572.1875 1088.371094 572.0625 C 1089.15625 571.957031 1089.929688 571.851562 1090.6875 571.746094 C 1093.730469 571.359375 1096.578125 570.992188 1099.234375 570.652344 C 1101.886719 570.324219 1104.351562 570.113281 1106.605469 569.871094 C 1108.859375 569.648438 1110.90625 569.414062 1112.742188 569.265625 C 1120.085938 568.746094 1124.007812 568.464844 1124.007812 568.464844 C 1124.007812 568.464844 1120.125 569.054688 1112.851562 570.15625 C 1111.035156 570.441406 1109.015625 570.820312 1106.789062 571.207031 C 1104.566406 571.609375 1102.132812 571.996094 1099.519531 572.519531 C 1096.910156 573.042969 1094.109375 573.617188 1091.117188 574.21875 C 1090.371094 574.371094 1089.609375 574.527344 1088.839844 574.679688 C 1088.070312 574.855469 1087.292969 575.027344 1086.503906 575.207031 C 1084.921875 575.558594 1083.296875 575.925781 1081.625 576.300781 C 1068.269531 579.335938 1052.179688 583.539062 1033.953125 589.113281 C 1031.671875 589.78125 1029.371094 590.550781 1027.019531 591.28125 C 1024.675781 592.019531 1022.289062 592.746094 1019.882812 593.53125 C 1015.074219 595.125 1010.113281 596.699219 1005.054688 598.449219 C 994.917969 601.855469 984.300781 605.585938 973.238281 609.554688 C 951.101562 617.457031 927.210938 626.367188 901.609375 635.183594 C 876.011719 643.945312 848.695312 652.703125 819.660156 659.40625 C 818.757812 659.617188 817.851562 659.835938 816.945312 660.050781 L 814.203125 660.644531 C 812.375 661.039062 810.542969 661.433594 808.710938 661.832031 C 805.046875 662.667969 801.324219 663.316406 797.601562 664.03125 L 794.808594 664.5625 L 793.410156 664.824219 L 792 665.054688 C 790.121094 665.363281 788.238281 665.671875 786.351562 665.980469 C 784.464844 666.277344 782.589844 666.621094 780.675781 666.886719 C 778.757812 667.148438 776.835938 667.410156 774.910156 667.671875 C 772.992188 667.929688 771.050781 668.210938 769.136719 668.445312 C 767.25 668.652344 765.363281 668.855469 763.46875 669.058594 C 761.574219 669.261719 759.679688 669.46875 757.78125 669.671875 L 754.761719 669.9375 C 753.789062 670.023438 752.8125 670.105469 751.835938 670.175781 C 747.929688 670.476562 743.988281 670.664062 740.03125 670.808594 C 736.066406 670.90625 732.085938 670.984375 728.070312 670.875 C 720.054688 670.730469 711.9375 670.039062 703.832031 668.726562 C 702.820312 668.554688 701.8125 668.363281 700.796875 668.175781 C 699.785156 667.992188 698.773438 667.804688 697.765625 667.574219 L 694.738281 666.90625 C 693.707031 666.660156 692.667969 666.378906 691.632812 666.113281 L 690.082031 665.707031 L 688.667969 665.285156 L 685.863281 664.453125 L 682.75 663.386719 L 681.257812 662.875 L 679.789062 662.304688 L 676.851562 661.148438 L 673.960938 659.875 L 672.515625 659.234375 L 671.097656 658.53125 L 668.261719 657.121094 L 665.484375 655.585938 L 664.097656 654.808594 L 662.742188 653.984375 L 660.035156 652.3125 L 657.398438 650.515625 C 656.960938 650.210938 656.515625 649.917969 656.085938 649.609375 L 654.804688 648.644531 C 653.957031 647.996094 653.097656 647.367188 652.257812 646.703125 L 649.796875 644.640625 C 649.390625 644.292969 648.96875 643.960938 648.574219 643.59375 L 647.394531 642.496094 C 644.195312 639.628906 641.292969 636.398438 638.550781 633.039062 C 637.238281 631.304688 635.890625 629.601562 634.71875 627.75 L 633.816406 626.386719 L 633.363281 625.703125 L 632.929688 624.957031 L 631.207031 621.960938 C 631.070312 621.710938 630.914062 621.449219 630.789062 621.214844 L 630.464844 620.558594 L 629.8125 619.238281 L 629.164062 617.917969 L 629 617.589844 C 629.042969 617.6875 628.757812 617.089844 628.726562 617.003906 L 628.40625 616.25 C 627.984375 615.238281 627.53125 614.238281 627.148438 613.214844 L 626.03125 610.121094 C 623.265625 601.800781 622.011719 593.070312 622.066406 584.480469 C 622.152344 575.886719 623.511719 567.449219 625.773438 559.394531 C 628.074219 551.351562 631.183594 543.640625 634.996094 536.386719 C 638.78125 529.121094 643.214844 522.261719 648.167969 515.875 L 650.054688 513.5 L 652.042969 511.113281 C 652.382812 510.699219 652.691406 510.359375 653.007812 510 L 653.953125 508.925781 L 654.425781 508.386719 L 654.664062 508.121094 L 654.980469 507.769531 L 656.003906 506.667969 C 658.734375 503.726562 661.582031 500.875 664.605469 498.183594 C 667.632812 495.492188 670.824219 492.949219 674.199219 490.613281 C 677.574219 488.28125 681.140625 486.152344 684.933594 484.390625 C 685.855469 483.914062 686.847656 483.542969 687.808594 483.125 C 688.292969 482.929688 688.765625 482.710938 689.261719 482.527344 L 690.75 482 L 692.238281 481.480469 C 692.734375 481.300781 693.25 481.175781 693.757812 481.023438 L 695.28125 480.589844 L 696.042969 480.375 L 696.867188 480.195312 L 698.523438 479.839844 L 699.351562 479.667969 C 699.617188 479.617188 699.9375 479.539062 700.140625 479.515625 L 702.886719 479.121094 L 703.472656 479.042969 L 703.875 479.003906 L 704.675781 478.933594 C 705.210938 478.875 705.75 478.851562 706.285156 478.824219 C 706.820312 478.785156 707.359375 478.769531 707.894531 478.765625 C 708.433594 478.757812 708.96875 478.746094 709.511719 478.765625 C 713.816406 478.824219 718.167969 479.484375 722.378906 480.890625 C 724.484375 481.589844 726.546875 482.480469 728.523438 483.574219 L 730.132812 484.535156 C 730.273438 484.617188 730.394531 484.695312 730.476562 484.753906 L 730.757812 484.941406 L 731.320312 485.320312 L 731.601562 485.515625 C 732.027344 485.8125 731.914062 485.746094 732.097656 485.878906 L 732.777344 486.394531 C 733.238281 486.734375 733.664062 487.113281 734.097656 487.480469 C 737.542969 490.457031 740.277344 494.113281 742.214844 497.996094 C 744.164062 501.890625 745.375 505.984375 746.011719 510.058594 C 746.640625 514.144531 746.703125 518.230469 746.296875 522.226562 C 745.890625 526.214844 744.988281 530.140625 743.621094 533.871094 C 740.878906 541.21875 736.785156 547.605469 732.191406 553.167969 C 727.578125 558.722656 722.527344 563.519531 717.476562 567.941406 C 716.199219 569.050781 714.917969 570.15625 713.6875 571.1875 C 712.414062 572.265625 711.140625 573.273438 709.878906 574.3125 C 707.347656 576.371094 704.839844 578.417969 702.328125 580.414062 C 697.222656 584.300781 692.269531 588.199219 687.210938 591.765625 C 685.953125 592.671875 684.707031 593.570312 683.464844 594.464844 C 682.84375 594.914062 682.226562 595.359375 681.605469 595.804688 C 680.976562 596.234375 680.347656 596.660156 679.722656 597.089844 C 677.210938 598.796875 674.730469 600.480469 672.269531 602.152344 C 652.457031 615.289062 633.34375 625.773438 616 634.121094 C 598.640625 642.457031 583.019531 648.597656 570.007812 653.136719 C 568.382812 653.710938 566.8125 654.292969 565.265625 654.808594 C 563.714844 655.308594 562.210938 655.800781 560.75 656.273438 C 557.828125 657.207031 555.105469 658.117188 552.542969 658.882812 C 549.972656 659.632812 547.597656 660.320312 545.421875 660.957031 C 543.242188 661.582031 541.277344 662.199219 539.492188 662.636719 C 532.363281 664.480469 528.5625 665.457031 528.5625 665.457031 " fill-opacity="1" fill-rule="nonzero"/></g></svg>